<svg width="96" height="34" viewBox="0 0 96 34" fill="none" xmlns="http://www.w3.org/2000/svg">
<g clip-path="url(#clip0_53_1231)">
<path d="M27.3057 27.7427C27.8363 27.7427 28.2754 27.9223 28.6277 28.2773C28.9886 28.6322 29.1625 29.0748 29.1625 29.6006C29.1625 30.1264 28.9886 30.5602 28.6277 30.9239C28.2754 31.2788 27.8363 31.4585 27.3057 31.4585H26.1621V33.3952H25.2402V27.7471H27.3057V27.7427ZM27.3057 30.5821C27.8493 30.5821 28.2407 30.1702 28.2407 29.5962C28.2407 29.0222 27.8493 28.6103 27.3057 28.6103H26.1621V30.5777H27.3057V30.5821Z" fill="#103559"/>
<path d="M30.5502 31.7779C30.6836 32.3439 31.203 32.6552 31.9064 32.6552C32.3891 32.6552 32.7523 32.4975 33.0005 32.1943L33.7545 32.5824C33.3407 33.1241 32.7201 33.395 31.9018 33.395C31.2168 33.395 30.656 33.209 30.233 32.8452C29.8101 32.4733 29.5986 32.0043 29.5986 31.4383C29.5986 30.8724 29.8101 30.4196 30.2238 30.0477C30.6376 29.6677 31.1801 29.4817 31.8328 29.4817C32.4489 29.4817 32.9592 29.6757 33.3545 30.0557C33.7545 30.4358 33.9567 30.9047 33.9567 31.4464C33.9567 31.5273 33.9475 31.6405 33.9246 31.782H30.5548L30.5502 31.7779ZM33.0327 31.123C32.904 30.5207 32.4213 30.2053 31.8237 30.2053C31.1479 30.2053 30.6744 30.557 30.5456 31.123H33.0327Z" fill="#103559"/>
<path d="M36.5712 30.1502H35.5708V32.0925C35.5708 32.611 35.9087 32.6022 36.5712 32.5714V33.358C35.2374 33.5206 34.6978 33.1559 34.6978 32.0969V30.1546H33.9563V29.3109H34.6978V28.4365L35.5708 28.1772V29.3109H36.5712V30.1546V30.1502Z" fill="#103559"/>
<path d="M38.7216 31.0883C39.3109 31.2137 40.0746 31.4525 40.058 32.2497C40.058 32.6059 39.9127 32.8891 39.6305 33.0915C39.3483 33.2938 38.9955 33.395 38.568 33.395C37.8127 33.395 37.2524 33.0672 37.0076 32.5249L37.7173 32.1243C37.8459 32.4804 38.1281 32.6625 38.5639 32.6625C38.9997 32.6625 39.2155 32.5209 39.2155 32.2457C39.2155 32.0069 38.8959 31.8653 38.4892 31.7682C37.9165 31.6265 37.1445 31.4039 37.1611 30.6189C37.1611 30.2749 37.2898 29.9997 37.5595 29.7933C37.8252 29.5829 38.1655 29.4817 38.5597 29.4817C39.1947 29.4817 39.7052 29.7731 39.975 30.2587L39.2777 30.6391C39.1491 30.3558 38.9042 30.2142 38.5597 30.2142C38.2485 30.2142 38.0036 30.3477 38.0036 30.6108C38.0036 30.8576 38.3232 30.9831 38.7216 31.0964V31.0883Z" fill="#103559"/>
<path d="M45.2875 28.5738C44.6008 28.5179 44.2669 28.7803 44.2669 29.3566V29.434H45.2875V30.2598H44.2669V33.3952H43.331V30.2598H42.6726V29.434H43.331V29.3566C43.331 28.2728 44.0083 27.6792 45.2875 27.7481V28.5738Z" fill="#103559"/>
<path d="M46.3601 32.829C45.9386 32.449 45.7234 31.9882 45.7234 31.4383C45.7234 30.8885 45.9386 30.4277 46.3601 30.0477C46.7815 29.6677 47.3016 29.4817 47.9024 29.4817C48.5032 29.4817 49.0234 29.6677 49.4448 30.0477C49.8663 30.4277 50.0815 30.8885 50.0815 31.4383C50.0815 31.9882 49.8663 32.449 49.4448 32.829C49.0234 33.209 48.5122 33.395 47.9024 33.395C47.2927 33.395 46.7815 33.209 46.3601 32.829ZM47.9024 32.6148C48.2656 32.6148 48.5705 32.5016 48.8171 32.2792C49.0637 32.0569 49.1892 31.7739 49.1892 31.4383C49.1892 31.1028 49.0637 30.8198 48.8171 30.5975C48.5705 30.3751 48.2656 30.2619 47.9024 30.2619C47.5393 30.2619 47.2344 30.3751 46.9878 30.5975C46.7412 30.8198 46.6156 31.1028 46.6156 31.4383C46.6156 31.7739 46.7412 32.0569 46.9878 32.2792C47.2344 32.5016 47.5393 32.6148 47.9024 32.6148Z" fill="#103559"/>
<path d="M51.4146 30.1959C51.6402 29.7197 52.0733 29.4817 52.6959 29.4817V30.3796C52.3575 30.3546 52.0553 30.4339 51.7981 30.6093C51.541 30.7806 51.4146 31.0646 51.4146 31.4571V33.395H50.5168V29.5485H51.4146V30.1959Z" fill="#103559"/>
<path d="M59.2336 31.7815C59.2336 32.2419 59.079 32.6278 58.7657 32.9348C58.4525 33.2418 58.0723 33.3952 57.6212 33.3952H55.3113V27.7427H57.4499C57.8885 27.7427 58.2645 27.8962 58.5652 28.1944C58.8743 28.4926 59.0247 28.8653 59.0247 29.3082C59.0247 29.7994 58.8409 30.1809 58.4775 30.4615C58.9454 30.7202 59.2294 31.1895 59.2294 31.7771L59.2336 31.7815ZM56.1968 28.6153V30.1019H57.4499C57.8426 30.1019 58.1433 29.7774 58.1433 29.3608C58.1433 28.9442 57.8426 28.6197 57.4499 28.6197H56.1968V28.6153ZM57.6212 32.5226C58.0306 32.5226 58.3522 32.1761 58.3522 31.7332C58.3522 31.2903 58.0306 30.9439 57.6212 30.9439H56.1968V32.527H57.6212V32.5226Z" fill="#103559"/>
<path d="M61.0556 31.7779C61.1888 32.3439 61.7077 32.6552 62.4103 32.6552C62.8925 32.6552 63.2553 32.4975 63.5033 32.1943L64.2564 32.5824C63.8431 33.1241 63.2232 33.395 62.4057 33.395C61.7215 33.395 61.1612 33.209 60.7387 32.8452C60.3162 32.4733 60.105 32.0043 60.105 31.4383C60.105 30.8724 60.3162 30.4196 60.7295 30.0477C61.1428 29.6677 61.6847 29.4817 62.3368 29.4817C62.9522 29.4817 63.462 29.6757 63.8615 30.0557C64.261 30.4358 64.4631 30.9047 64.4631 31.4464C64.4631 31.5273 64.4539 31.6405 64.4309 31.782H61.0648L61.0556 31.7779ZM63.5354 31.123C63.4069 30.5207 62.9247 30.2053 62.3277 30.2053C61.6526 30.2053 61.1796 30.557 61.051 31.123H63.54H63.5354Z" fill="#103559"/>
<path d="M66.1774 31.0883C66.7667 31.2137 67.5304 31.4525 67.5138 32.2497C67.5138 32.6059 67.3685 32.8891 67.0863 33.0915C66.8041 33.2938 66.4513 33.395 66.0239 33.395C65.2685 33.395 64.7082 33.0672 64.4634 32.5249L65.1731 32.1243C65.3017 32.4804 65.5839 32.6625 66.0197 32.6625C66.4555 32.6625 66.6713 32.5209 66.6713 32.2457C66.6713 32.0069 66.3517 31.8653 65.945 31.7682C65.3723 31.6265 64.6003 31.4039 64.6169 30.6189C64.6169 30.2749 64.7456 29.9997 65.0154 29.7933C65.281 29.5829 65.6213 29.4817 66.0156 29.4817C66.6505 29.4817 67.161 29.7731 67.4308 30.2587L66.7335 30.6391C66.6049 30.3558 66.36 30.2142 66.0156 30.2142C65.7043 30.2142 65.4594 30.3477 65.4594 30.6108C65.4594 30.8576 65.779 30.9831 66.1774 31.0964V31.0883Z" fill="#103559"/>
<path d="M70.5641 30.1502H69.5654V32.0925C69.5654 32.611 69.9027 32.6022 70.5641 32.5714V33.358C69.2326 33.5206 68.6938 33.1559 68.6938 32.0969V30.1546H67.9492V29.3109H68.6938V28.4365L69.5654 28.1772V29.3109H70.5641V30.1546V30.1502Z" fill="#103559"/>
<path d="M21.0431 3.44012C20.929 2.31553 20.4772 2.08887 19.5999 2.08887H15.8623C15.042 2.08887 14.8446 2.22835 14.5331 3.13064L11.73 12.2451L8.92685 3.13064C8.61539 2.22835 8.41798 2.08887 7.59766 2.08887H3.85574C2.97839 2.08887 2.52655 2.31553 2.4125 3.44012L0.429677 21.3334C0.346328 21.9785 0.403356 22.2357 0.969249 22.3185L5.24635 22.9375C5.89559 23.0203 6.04035 22.8808 6.1237 22.4013L7.05808 14.0192L9.06722 21.8695C9.26463 22.5146 9.51906 22.7718 10.1727 22.7718H13.2873C13.9365 22.7718 14.1954 22.519 14.3928 21.8695L16.3756 14.0192L17.3363 22.4013C17.4196 22.8808 17.5644 23.0203 18.2136 22.9375L22.4907 22.3185C23.0566 22.2357 23.1137 21.9829 23.0303 21.3334L21.0431 3.44012Z" fill="#103559"/>
<path d="M31.3414 6.87158C26.5413 6.87158 23.9326 10.1616 23.9326 14.6982C23.9326 19.2348 26.5413 22.5248 31.3414 22.5248C36.1414 22.5248 38.7502 19.2348 38.7502 14.6982C38.7502 10.1616 36.1414 6.87158 31.3414 6.87158ZM31.3414 17.4056C30.1892 17.4056 29.5718 16.3261 29.5718 14.6939C29.5718 13.0618 30.1892 11.9822 31.3414 11.9822C32.4936 11.9822 33.111 13.0618 33.111 14.6939C33.111 16.3261 32.4936 17.4056 31.3414 17.4056Z" fill="#103559"/>
<path d="M49.5147 6.88027C48.5307 6.88027 41.1683 7.07577 40.6893 7.74917C40.4934 7.97509 40.4934 8.28355 40.4934 8.81358L40.7198 21.039C40.7459 22.1599 41.0028 22.5248 41.9824 22.5248H45.4133C46.3973 22.5248 46.6759 22.1599 46.6759 21.039V12.5976C47.0983 12.4586 47.2376 12.4021 47.7165 12.3717C48.3609 12.3457 48.67 12.5412 48.8703 13.0712C49.0096 13.6316 49.0401 14.4745 49.0401 15.6214L49.014 21.0347C49.014 22.1556 49.3231 22.5205 50.3071 22.5205H53.8207C54.8047 22.5205 55.0572 22.1556 55.0833 21.0347L55.3097 13.5752C55.3359 11.7505 54.944 10.0691 54.0166 8.8353C53.0326 7.60146 51.5697 6.87158 49.519 6.87158L49.5147 6.88027Z" fill="#103559"/>
<path d="M62.7017 8.61108H59.17C58.2037 8.61108 57.9258 8.94433 57.9258 10.0652V21.045C57.9258 22.1616 58.2037 22.5251 59.17 22.5251H62.7573C63.7236 22.5251 64.0271 22.1616 64.0271 21.045L63.9715 10.0652C63.9715 8.97462 63.668 8.61108 62.7017 8.61108Z" fill="#103559"/>
<path d="M61.1944 1.21899C59.1026 1.21899 57.9258 2.50704 57.9258 4.26268C57.9258 6.01833 59.1026 7.30637 61.1944 7.30637C63.2861 7.30637 64.4629 6.01833 64.4629 4.26268C64.4629 2.50704 63.2861 1.21899 61.1944 1.21899Z" fill="#103559"/>
<path d="M76.3605 7.32724H74.1881V3.5471C74.1881 2.42739 73.9005 2.08887 72.905 2.08887H69.5335C68.5336 2.08887 68.2195 2.45343 68.2195 3.5471V7.32724H66.5072C65.5648 7.32724 65.3347 7.4965 65.3347 8.36449V11.4198C65.3347 12.2878 65.5648 12.4571 66.5072 12.4571H68.2195V17.7779C68.2195 21.3628 70.1308 22.9599 73.7324 22.9599C74.7898 22.9599 75.8472 22.8774 76.8472 22.6778C77.2764 22.5953 77.3914 22.4825 77.3914 22.0615L77.2498 17.7736C77.2498 17.409 77.0507 17.2702 76.6791 17.3526C76.3649 17.4351 76.0508 17.4915 75.6216 17.4915C74.7942 17.4915 74.1925 17.2094 74.1925 16.0072V12.4484H76.3649C77.3073 12.4484 77.5374 12.2792 77.5374 11.4112V8.35581C77.5374 7.48782 77.3073 7.31856 76.3649 7.31856L76.3605 7.32724Z" fill="#103559"/>
<path d="M85.8177 6.87158C81.0177 6.87158 78.4089 10.1616 78.4089 14.6982C78.4089 19.2348 81.0177 22.5248 85.8177 22.5248C90.6178 22.5248 93.2265 19.2348 93.2265 14.6982C93.2265 10.1616 90.6178 6.87158 85.8177 6.87158ZM85.8177 17.4056C84.6655 17.4056 84.0481 16.3261 84.0481 14.6939C84.0481 13.0618 84.6655 11.9822 85.8177 11.9822C86.9699 11.9822 87.5873 13.0618 87.5873 14.6939C87.5873 16.3261 86.9699 17.4056 85.8177 17.4056Z" fill="#103559"/>
<path d="M94.6042 7.48485C94.1006 7.12155 93.2758 7.33146 92.7549 7.9531C92.2339 8.57475 92.2209 9.37401 92.7201 9.73731C93.2237 10.1006 94.0485 9.8907 94.5695 9.26905C95.0904 8.64741 95.1034 7.84815 94.6042 7.48485Z" fill="#103559"/>
<path d="M82.7531 6.42797C83.345 6.33708 83.7328 5.58824 83.6185 4.75284C83.5042 3.91743 82.9368 3.31144 82.3449 3.40234C81.753 3.49324 81.3651 4.24207 81.4795 5.07748C81.5938 5.91288 82.1612 6.51887 82.7531 6.42797Z" fill="#103559"/>
<path d="M90.423 7.19608C91.2419 7.60947 92.4816 6.82762 93.1874 5.44814C93.8932 4.06867 93.8027 2.6128 92.9793 2.19941C92.1604 1.78602 90.9207 2.56787 90.2149 3.94735C89.509 5.32682 89.5995 6.78268 90.423 7.19608Z" fill="#103559"/>
<path d="M86.1836 5.99513C87.0089 6.10016 87.8097 5.01917 87.9691 3.58368C88.1284 2.14381 87.5891 0.89651 86.7597 0.791474C85.9343 0.686438 85.1335 1.76743 84.9742 3.20292C84.8148 4.64279 85.3542 5.89009 86.1836 5.99513Z" fill="#103559"/>
</g>
<defs>
<clipPath id="clip0_53_1231">
<rect width="95.0066" height="33.0458" fill="white" transform="translate(0.398926 0.784424)"/>
</clipPath>
</defs>
</svg>
