<svg width="1190" height="575" viewBox="0 0 1190 575" fill="none" xmlns="http://www.w3.org/2000/svg">
<rect x="577.655" y="221.407" width="524.602" height="524.602" rx="81.7883" transform="rotate(9.35484 577.655 221.407)" fill="#003459"/>
<rect x="715.169" y="148.706" width="524.602" height="524.602" rx="81.7883" transform="rotate(25.23 715.169 148.706)" fill="#F7DBA7"/>
<rect opacity="0.4" x="362.127" y="465.945" width="524.602" height="524.602" rx="81.7883" transform="rotate(56.47 362.127 465.945)" fill="#F7DBA7"/>
<rect x="-53.146" y="-575.823" width="524.602" height="524.602" rx="81.7883" transform="rotate(25.23 -53.146 -575.823)" fill="#F7DBA7"/>
<rect x="116.158" y="134.662" width="55.437" height="55.437" rx="16.5229" transform="rotate(25.23 116.158 134.662)" fill="#F7DBA7"/>
<rect x="509.064" y="144.575" width="12.0835" height="12.0835" rx="3.30458" transform="rotate(20.792 509.064 144.575)" fill="#F7DBA7"/>
<rect x="496.513" y="209.575" width="22.717" height="22.717" rx="7.4353" transform="rotate(-22.8503 496.513 209.575)" fill="#F7DBA7"/>
<rect x="495.686" y="220.287" width="17.7379" height="17.7379" rx="4.95687" transform="rotate(-43.0046 495.686 220.287)" fill="#002A48"/>
</svg>
